<?xml version="1.0" standalone="no"?>
<!DOCTYPE svg PUBLIC "-//W3C//DTD SVG 20010904//EN"
 "http://www.w3.org/TR/2001/REC-SVG-20010904/DTD/svg10.dtd">
<svg version="1.0" xmlns="http://www.w3.org/2000/svg"
 width="99px" height="87px" viewBox="0 0 1920.000000 1759.000000"
 preserveAspectRatio="xMidYMid meet">

<g transform="translate(0.000000,1759.000000) scale(0.100000,-0.100000)"
fill="#000000" stroke="none">
<path d="M9365 13680 c-745 -57 -1449 -333 -2030 -796 -141 -113 -446 -417
-559 -559 -442 -554 -706 -1199 -787 -1925 -19 -171 -17 -583 5 -760 53 -445
158 -809 345 -1195 437 -904 1256 -1606 2212 -1894 1459 -441 3018 52 3951
1250 691 888 932 2052 652 3148 -255 997 -925 1841 -1845 2325 -400 210 -865
349 -1329 396 -150 15 -474 20 -615 10z m415 -1821 c645 -60 1205 -447 1485
-1024 243 -502 245 -1076 4 -1585 -55 -116 -168 -290 -252 -390 l-55 -65 379
-752 c208 -413 379 -755 379 -760 0 -5 -13 -19 -29 -31 l-29 -21 -1018 1489
c-560 820 -1021 1489 -1025 1488 -4 -2 -462 -669 -1018 -1483 -556 -814 -1017
-1481 -1024 -1482 -6 -2 -23 5 -36 16 l-23 18 380 759 380 759 -82 101 c-482
600 -536 1436 -136 2093 222 364 575 647 976 780 255 85 492 114 744 90z"/>
<path d="M6630 4550 l0 -950 225 0 225 0 0 278 c0 399 16 516 83 603 45 60
113 91 196 93 82 1 133 -22 168 -76 51 -77 56 -114 60 -520 l5 -378 224 0 224
0 0 438 c-1 327 -4 457 -15 515 -44 251 -223 397 -485 397 -160 0 -274 -46
-384 -152 -38 -38 -70 -68 -72 -68 -2 0 -4 173 -4 385 l0 385 -225 0 -225 0 0
-950z"/>
<path d="M11680 5124 l0 -376 -54 54 c-102 102 -226 147 -402 148 -150 0 -275
-50 -374 -151 -216 -220 -260 -618 -102 -924 114 -220 370 -342 611 -291 146
31 268 111 329 216 l27 45 3 -122 3 -123 204 0 205 0 0 950 0 950 -225 0 -225
0 0 -376z m-163 -545 c53 -25 98 -77 132 -149 23 -49 26 -68 26 -165 0 -98 -3
-116 -26 -165 -68 -145 -193 -208 -333 -169 -49 13 -121 80 -151 139 -70 137
-51 353 38 448 82 89 206 112 314 61z"/>
<path d="M12450 4550 l0 -950 225 0 225 0 0 950 0 950 -225 0 -225 0 0 -950z"/>
<path d="M8320 5305 l0 -165 225 0 225 0 0 165 0 165 -225 0 -225 0 0 -165z"/>
<path d="M4405 5389 c-317 -46 -515 -203 -555 -440 -32 -191 35 -375 175 -474
79 -57 121 -75 340 -146 198 -65 271 -105 298 -162 33 -69 15 -156 -41 -195
-117 -84 -481 -61 -681 42 -18 10 -35 16 -37 14 -6 -7 -44 -371 -39 -379 7
-10 122 -36 235 -54 402 -61 755 6 921 176 96 97 139 215 139 379 0 291 -126
419 -524 535 -246 71 -306 111 -306 203 0 94 61 142 205 163 128 18 330 -6
448 -52 27 -11 51 -18 52 -17 2 2 8 68 14 148 6 80 14 159 16 176 5 31 4 32
-53 48 -150 42 -442 59 -607 35z"/>
<path d="M5907 4940 c-81 -14 -188 -50 -262 -88 -96 -50 -218 -173 -263 -264
-69 -143 -91 -331 -57 -493 53 -248 241 -428 523 -497 147 -36 384 -29 547 17
l50 14 -3 163 c-2 90 -5 165 -7 166 -2 2 -28 -5 -58 -17 -85 -31 -212 -46
-288 -32 -192 33 -311 167 -310 351 1 133 43 224 139 297 103 78 301 85 443
15 l39 -20 5 22 c6 32 25 237 25 277 0 33 -3 36 -47 52 -122 44 -337 60 -476
37z"/>
<path d="M9791 4930 c-122 -32 -217 -101 -283 -203 l-33 -52 -3 123 -3 122
-204 0 -205 0 0 -660 0 -660 224 0 224 0 4 348 c4 287 8 357 22 407 36 128
104 197 212 216 121 21 208 -32 244 -148 19 -60 20 -93 20 -444 l0 -379 231 0
231 0 -4 473 -4 472 -26 77 c-58 172 -159 270 -325 313 -80 21 -231 18 -322
-5z"/>
<path d="M13644 4935 c-266 -58 -452 -238 -508 -492 -20 -89 -20 -255 -2 -344
53 -249 243 -432 523 -501 72 -18 116 -22 243 -21 162 0 261 14 395 54 l75 22
0 158 c0 88 -2 159 -4 159 -2 0 -28 -11 -58 -25 -103 -47 -202 -67 -338 -68
-141 -2 -204 12 -282 62 -51 32 -96 98 -105 155 l-6 36 458 0 458 0 -6 128
c-7 138 -23 221 -63 321 -74 188 -226 314 -426 355 -93 19 -269 20 -354 1z
m254 -276 c94 -20 168 -109 179 -215 l6 -54 -258 0 -258 0 7 42 c15 90 67 172
131 205 64 34 113 40 193 22z"/>
<path d="M15384 4941 c-97 -24 -198 -107 -250 -206 -16 -30 -32 -55 -36 -55
-5 0 -8 54 -8 120 l0 120 -205 0 -205 0 0 -660 0 -660 225 0 225 0 0 273 c0
299 10 419 40 500 24 65 77 129 133 162 58 33 167 50 251 38 36 -5 66 -9 67
-9 1 1 6 85 13 188 l11 186 -35 6 c-47 8 -188 6 -226 -3z"/>
<path d="M8320 4260 l0 -660 225 0 225 0 0 660 0 660 -225 0 -225 0 0 -660z"/>
</g>
</svg>
